<?xml version="1.0" encoding="UTF-8"?>
<svg id="Layer_2" data-name="Layer 2" xmlns="http://www.w3.org/2000/svg" viewBox="0 0 26.69 29.16">
  <defs>
    <style>
      .cls-1 {
        fill: #39c6f4;
        stroke: #39c6f4;
        stroke-width: .82px;
      }

      .cls-1, .cls-2, .cls-3 {
        stroke-miterlimit: 10;
      }

      .cls-2 {
        stroke-width: .84px;
      }

      .cls-2, .cls-3 {
        fill: #47486b;
        stroke: #47486b;
      }
    </style>
  </defs>
  <g id="Layer_1-2" data-name="Layer 1">
    <g>
      <path class="cls-2" d="m15.42.9c-3.81,6.66-8.04,13.38-8.04,18.03.32,4.66,3.85,7.35,7.77,7.35s7.3-3.17,7.3-7.56c0-3.75-3.84-11.17-7.03-17.82Z"/>
      <path class="cls-1" d="m5.21,13.59C2.94,17.57.41,21.58.41,24.36c.19,2.78,2.3,4.39,4.64,4.39s4.36-1.89,4.36-4.52c0-2.24-2.29-6.67-4.2-10.64Z"/>
      <path class="cls-1" d="m23.44,3.32c-1.54,2.69-3.25,5.41-3.25,7.29.13,1.89,1.56,2.97,3.14,2.97s2.95-1.28,2.95-3.06c0-1.52-1.55-4.52-2.84-7.21Z"/>
      <path class="cls-3" d="m9.01,1.23c-.77,1.35-1.63,2.71-1.63,3.65.06.94.78,1.49,1.57,1.49s1.48-.64,1.48-1.53c0-.76-.78-2.26-1.42-3.6Z"/>
    </g>
  </g>
</svg>