<?xml version="1.0" encoding="UTF-8"?>
<svg id="Layer_2" data-name="Layer 2" xmlns="http://www.w3.org/2000/svg" viewBox="0 0 109.82 167.71">
  <defs>
    <style>
      .cls-1 {
        fill: none;
        stroke: #000;
        stroke-width: 6px;
      }

      .cls-1, .cls-2, .cls-3 {
        stroke-miterlimit: 10;
      }

      .cls-2 {
        fill: #fe0000;
        stroke: #fe0000;
        stroke-width: 4.86px;
      }

      .cls-3 {
        stroke: #f05323;
        stroke-width: 4.49px;
      }

      .cls-3, .cls-4 {
        fill: #f05323;
      }
    </style>
  </defs>
  <g id="Layer_1-2" data-name="Layer 1">
    <g>
      <line class="cls-1" x1="2.65" y1="37.01" x2="39.41" y2="37.01"/>
      <line class="cls-1" x1="16.67" y1="49.97" x2="39.41" y2="49.97"/>
      <line class="cls-1" y1="62.93" x2="39.41" y2="62.93"/>
      <line class="cls-1" x1="16.67" y1="75.89" x2="39.41" y2="75.89"/>
      <line class="cls-1" x1="39.41" y1="88.85" x2="2.65" y2="88.85"/>
      <line class="cls-1" x1="14.4" y1="101.81" x2="39.41" y2="101.81"/>
      <path class="cls-1" d="m49.64,116.84l-1.14-81.35s1.52-14.41,15.92-14.4c6.89,0,12.79,6.19,13.64,13.64-.13,27.41-.63,53.81-.76,81.22,9.66,6.88,12.97,17.87,10.9,27.73-2.16,10.3-11.66,21.03-24.43,21.03s-23.63-9.08-25.45-20.23.69-19.89,11.32-27.65Z"/>
      <circle class="cls-2" cx="63.36" cy="138.44" r="16.42"/>
      <rect class="cls-2" x="57.67" y="49.97" width="11.37" height="85.44" rx="5.68" ry="5.68"/>
      <g>
        <circle class="cls-3" cx="81.31" cy="26.13" r="12.25" transform="translate(26.05 91.25) rotate(-67.5)"/>
        <path class="cls-4" d="m81.44,0c1.87,1.53,2.87,4.63,1.48,6.89-1.25,1.95-1.51,3.8-.69,6.01.33,1.03.83,2.04,1.37,2.99.1.38.7.45-.13,1.38l-.8.47c-1.21.24-1.01-.36-1.27-.69-.55-1.14-1.03-2.29-1.34-3.54-.39-1.65-.53-3.56.26-5.27.83-1.71,2.05-2.56,2.22-3.98.27-1.4-.28-2.93-1.1-4.27h0Z"/>
        <path class="cls-4" d="m53.69,25.44c1.53-1.87,4.63-2.87,6.89-1.48,1.95,1.25,3.8,1.51,6.01.69,1.03-.33,2.04-.83,2.99-1.37.38-.1.45-.7,1.38.13l.47.8c.24,1.21-.36,1.01-.69,1.27-1.14.55-2.29,1.03-3.54,1.34-1.65.39-3.56.53-5.27-.26-1.71-.83-2.56-2.05-3.98-2.22-1.4-.27-2.93.28-4.27,1.1h0Z"/>
        <path class="cls-4" d="m80.07,53.33c-1.87-1.53-2.87-4.63-1.48-6.89,1.25-1.95,1.51-3.8.69-6.01-.33-1.03-.83-2.04-1.37-2.99-.1-.38-.7-.45.13-1.38l.8-.47c1.21-.24,1.01.36,1.27.69.55,1.14,1.03,2.29,1.34,3.54.39,1.65.53,3.56-.26,5.27-.83,1.71-2.05,2.56-2.22,3.98-.27,1.4.28,2.93,1.1,4.27h0Z"/>
        <path class="cls-4" d="m109.82,25.65c-1.53,1.87-4.63,2.87-6.89,1.48-1.95-1.25-3.8-1.51-6.01-.69-1.03.33-2.04.83-2.99,1.37-.38.1-.45.7-1.38-.13l-.47-.8c-.24-1.21.36-1.01.69-1.27,1.14-.55,2.29-1.03,3.54-1.34,1.65-.39,3.56-.53,5.27.26,1.71.83,2.56,2.05,3.98,2.22,1.39.27,2.93-.28,4.27-1.1h0Z"/>
        <path class="cls-4" d="m101.07,7.01c.24,2.41-1.24,5.3-3.83,5.92-.8.26-1.53.42-2.1.74-1.79.95-2.82,3.11-3.47,5.05-.12.35-.22.71-.32,1.07-.2.34.18.82-1.07.88l-.89-.23c-1.03-.69-.46-.97-.42-1.39.42-1.19.89-2.34,1.55-3.45.89-1.44,2.14-2.89,3.91-3.54,1.8-.62,3.26-.36,4.38-1.24,1.18-.79,1.88-2.27,2.24-3.8h0Z"/>
        <path class="cls-4" d="m62.44,6.56c2.41-.24,5.3,1.24,5.92,3.83.26.8.42,1.53.74,2.1.95,1.79,3.11,2.82,5.05,3.47.35.12.71.22,1.07.32.34.2.82-.18.88,1.07l-.23.89c-.69,1.03-.97.46-1.39.42-1.19-.42-2.34-.89-3.45-1.55-1.44-.89-2.89-2.14-3.54-3.91-.62-1.8-.36-3.26-1.24-4.38-.79-1.18-2.27-1.88-3.8-2.24h0Z"/>
        <path class="cls-4" d="m59.97,45.42c-.24-2.41,1.24-5.3,3.83-5.92.8-.26,1.53-.42,2.1-.74,1.79-.95,2.82-3.11,3.47-5.05.12-.35.22-.71.32-1.07.2-.34-.18-.82,1.07-.88l.89.23c1.03.69.46.97.42,1.39-.42,1.19-.89,2.34-1.55,3.45-.89,1.44-2.14,2.89-3.91,3.54-1.8.62-3.26.36-4.38,1.24-1.18.79-1.88,2.27-2.24,3.8h0Z"/>
        <path class="cls-4" d="m101.07,46.47c-2.41.24-5.3-1.24-5.92-3.83-.26-.8-.42-1.53-.74-2.1-.95-1.79-3.11-2.82-5.05-3.47-.35-.12-.71-.22-1.07-.32-.34-.2-.82.18-.88-1.07l.23-.89c.69-1.03.97-.46,1.39-.42,1.19.42,2.34.89,3.45,1.55,1.44.89,2.89,2.14,3.54,3.91.62,1.8.36,3.26,1.24,4.38.79,1.18,2.27,1.88,3.8,2.24h0Z"/>
      </g>
    </g>
  </g>
</svg>