<?xml version="1.0" encoding="UTF-8"?>
<svg id="Layer_2" data-name="Layer 2" xmlns="http://www.w3.org/2000/svg" xmlns:xlink="http://www.w3.org/1999/xlink" viewBox="0 0 377 516.82">
  <defs>
    <style>
      .cls-1 {
        fill: #fff;
      }

      .cls-2 {
        fill: #48cdd3;
      }

      .cls-3 {
        fill: #74c8d0;
      }

      .cls-4 {
        fill: #86d9d8;
      }

      .cls-5 {
        fill: #d4f8f9;
      }

      .cls-6 {
        fill: #3e85aa;
      }

      .cls-7 {
        fill: #8cded8;
      }

      .cls-7, .cls-8 {
        opacity: .6;
      }

      .cls-9 {
        fill: url(#linear-gradient);
      }

      .cls-10 {
        fill: #91e7df;
      }

      .cls-11 {
        fill: #47486b;
      }

      .cls-8 {
        fill: #afeadf;
      }

      .cls-12 {
        fill: #485880;
      }
    </style>
    <linearGradient id="linear-gradient" x1="308.27" y1="-116.56" x2="688.73" y2="-116.56" gradientTransform="translate(-309.65 306.79)" gradientUnits="userSpaceOnUse">
      <stop offset="0" stop-color="#a8f2e4"/>
      <stop offset=".9" stop-color="#4085ab"/>
    </linearGradient>
  </defs>
  <g id="Layer_1-2" data-name="Layer 1">
    <g>
      <path class="cls-9" d="m-1.38,2.21h364.73c8.68,0,15.73,7.05,15.73,15.73v344.4c0,8.79-7.13,15.92-15.92,15.92H-1.38V2.21h0Z" transform="translate(-1.38 379.08) rotate(-90)"/>
      <g>
        <rect class="cls-10" x=".83" y="379.58" width="375.68" height="114.36"/>
        <g>
          <ellipse class="cls-5" cx="120.63" cy="388.23" rx="24.68" ry=".76"/>
          <ellipse class="cls-5" cx="269.89" cy="410.33" rx="25.14" ry="1.14"/>
          <ellipse class="cls-5" cx="233.13" cy="418.92" rx="44.46" ry="1.14"/>
          <ellipse class="cls-5" cx="283.39" cy="431.31" rx="34.34" ry="1.14"/>
          <ellipse class="cls-5" cx="193.41" cy="434.4" rx="32.14" ry="3.09"/>
          <ellipse class="cls-5" cx="193.97" cy="396.58" rx="59.12" ry="1.39"/>
        </g>
      </g>
      <path class="cls-4" d="m151.21,378.92c12.64,5.76,30.44,12.26,52.48,15.54,26.75,3.98,49.28,1.65,64.42-1.14-.13-4.99-.25-9.98-.38-14.97-38.84.19-77.68.38-116.53.57Z"/>
      <g>
        <circle class="cls-7" cx="112.7" cy="268.25" r="63"/>
        <ellipse class="cls-8" cx="112.7" cy="267.75" rx="56" ry="55.5"/>
        <path class="cls-1" d="m92.14,222.49c-7.54,24.21.47,42.28,16.79,54.43,14.79,11.01,34.99,14.22,52.35,6.2-12.05,30.62-47.93,42.93-80,21.01-21.96-15.01-27.26-63.63,10.86-81.64Z"/>
      </g>
      <path class="cls-3" d="m213.05,375c13.69,7.43,29.45,14.79,47.24,21.22,44.46,16.08,86.43,20.55,116.72,20.92v-42.65c-53.89,1.6-110.06-1.09-163.96.51Z"/>
      <g>
        <g>
          <path class="cls-2" d="m145.31,380c20.86-9.19,47.91-18.91,80.34-25.39,36.05-7.21,67.69-8.2,92.08-7.2-.13,10.74-.25,21.47-.38,32.21-57.35.13-114.69.25-172.04.38Z"/>
          <path class="cls-6" d="m376.88,379.89v-50.02c-20.29,1.57-44.86,5.17-72,12.88-35.22,10.02-65.47,24.93-86.4,37.14,52.17.38,106.23-.38,158.4,0Z"/>
        </g>
        <g>
          <g>
            <rect class="cls-11" x="324.41" y="424.17" width="11.37" height="35.24"/>
            <path class="cls-11" d="m325.21,325.45c-7.5,26.64-14.99,53.28-22.49,79.92-.33.72-4.64,10.63,1.36,19.32,3.78,5.47,9.45,7.27,11.24,7.76h28.96c1.96-.59,7.7-2.6,11.58-8.26,6.2-9.02,2.1-19.21,1.7-20.14-7.27-25.7-14.54-51.41-21.81-77.11-1-3.31-2.13-6.19-5.11-6.27-2.58-.07-4.49,1.49-5.45,4.79Z"/>
            <path class="cls-11" d="m376.88,516.82v-78.06c-25.33,1.14-55.68,4.78-89.05,13.64-63.86,16.96-108.46,42.06-139,64.42,82.04,0,149.31,0,228.05,0Z"/>
          </g>
          <g>
            <g>
              <rect class="cls-12" x="41.37" y="365.61" width="8.34" height="27.28"/>
              <path class="cls-12" d="m41.91,286.91c-5.56,20.38-11.12,40.76-16.67,61.14-.24.55-3.44,8.14,1.01,14.78,2.8,4.18,7.01,5.56,8.34,5.94h21.47c1.45-.45,5.71-1.99,8.59-6.32,4.6-6.9,1.56-14.7,1.26-15.41-5.39-19.66-10.78-39.33-16.17-58.99-.74-2.53-1.58-4.74-3.79-4.8-1.91-.05-3.33,1.14-4.04,3.66Z"/>
            </g>
            <path class="cls-12" d="m.2,378.45c38.02,2.05,82.96,6.95,138.32,26.15,89.71,31.11,148.98,78.75,184.41,111.84-108.63.13-213.47.25-322.11.38.38-45.85-1.4-90.24-.62-138.37Z"/>
            <g>
              <rect class="cls-12" x="87.09" y="366.82" width="6.67" height="27.28"/>
              <path class="cls-12" d="m87.45,306.7c-4.58,16.87-9.16,33.75-13.73,50.62-.2.46-2.84,6.74.83,12.24,2.31,3.46,5.77,4.6,6.87,4.92h17.69c1.2-.37,4.7-1.65,7.08-5.23,3.79-5.72,1.28-12.17,1.04-12.76-4.44-16.28-8.88-32.56-13.32-48.85-.61-2.1-1.3-3.92-3.12-3.97-1.57-.04-2.74.94-3.33,3.03Z"/>
            </g>
          </g>
        </g>
      </g>
    </g>
  </g>
</svg>