<?xml version="1.0" encoding="UTF-8"?>
<svg id="Layer_2" data-name="Layer 2" xmlns="http://www.w3.org/2000/svg" viewBox="0 0 70.85 36.83">
  <defs>
    <style>
      .cls-1 {
        fill: #39c6f4;
      }

      .cls-2 {
        stroke: #47486b;
        stroke-miterlimit: 10;
      }

      .cls-2, .cls-3 {
        fill: #47486b;
      }

      .cls-4 {
        fill: #485880;
      }
    </style>
  </defs>
  <g id="Layer_1-2" data-name="Layer 1">
    <g>
      <g>
        <path class="cls-1" d="m.82,9.03C10.72,4.54,22.77,1.72,33.01,6.79c3.37,1.63,6.18,3.97,9.16,5.74,2.98,1.82,6.3,2.87,9.78,3.15,5.01.3,10.99.04,14.57-3.91,5.28-6.5-1.79-8.74-7.24-6.22,5.89-3.24,13.12-.35,7.82,6.68-3.64,4.37-9.95,4.93-15.24,4.8-3.67-.15-7.35-1.17-10.57-2.97-3.23-1.77-6.05-3.94-9.2-5.3-9.73-4.31-20.62-1.2-29.79,3.35,0,0-1.47-3.1-1.47-3.1h0Z"/>
        <path class="cls-1" d="m2.4,18.22c6.52-4,14.99-6.6,22.41-3.28,4.09,1.78,7.58,5.25,11.56,6.68,2.6,1.05,5.53,1.25,8.33,1.23,2.56.07,6.3.21,8.91.26,3.04.12,6.22.08,9.19.99,3,.9,5.77,2.4,8.05,4.39-2.73-1.32-5.55-2.29-8.43-2.68-5.96-.6-11.85.56-17.9.32-1.41-.05-3.25.11-4.66-.13-4.73-.46-9.27-3.37-12.75-6.08-7.24-5.96-16.38-4.42-24.58-1.39,0,0-.15-.31-.15-.31h0Z"/>
        <path class="cls-4" d="m8.71,13.7c6.5-4.76,15.94-6.08,23-1.69,2.34,1.41,4.25,3.06,6.41,4.22,4.35,2.45,9.58,3.19,14.57,2.97,5.09-.28,10.23-1.56,14.65-4.25-8.43,5.14-20.91,7.21-30.21,3.27-2.5-1.09-4.66-2.67-6.78-3.84-6.7-3.71-14.44-2.23-21.64-.69h0Z"/>
        <path class="cls-4" d="m5.75,27.8c-.47-1.44-.22-1.23.48-1.68,5.53-3.12,11.65-5.24,17.99-5.85,10.11-1.1,19.88,2.4,29.38,5.26,3.57,1.25,10.15,2.57,9.91,7.54-.47,5.29-10.58,4.65-11.7.21-.19-1.31.67-2.5,1.56-3.33-4.5,5.09,4.76,7.33,7.81,4.67,3.38-4.54-5.12-6.13-8.18-7.03-3.16-.86-6.32-1.71-9.49-2.47-11.88-3.2-23.8-2.74-34.83,2.97,0,0-1.05.56-1.05.56l-.52.29c-.17.1-.44.03-1.14-.75,0,0-.23-.39-.23-.39h0Z"/>
      </g>
      <path class="cls-3" d="m0,5.48C9.11-.97,21.61-1.75,31.54,3.25c0,0-.1.21-.1.21C21.59-1.21,9.36-.23.58,6.29c0,0-.58-.82-.58-.82h0Z"/>
      <polygon class="cls-2" points="58.5 7.66 58.05 7.93 57.79 8.22 57.39 8.01 56.99 7.86 57.11 7.41 57.13 6.95 57.59 6.95 58.09 6.83 58.27 7.24 58.5 7.66"/>
      <polygon class="cls-2" points="34.46 4.19 34.01 4.46 33.75 4.75 33.35 4.54 32.94 4.39 33.06 3.94 33.09 3.48 33.55 3.48 34.05 3.36 34.22 3.77 34.46 4.19"/>
      <polygon class="cls-2" points="56.08 31.94 55.63 32.2 55.37 32.5 54.97 32.28 54.56 32.13 54.68 31.68 54.71 31.22 55.17 31.22 55.67 31.1 55.84 31.51 56.08 31.94"/>
      <polygon class="cls-2" points="55.52 21.71 55.07 21.97 54.81 22.27 54.41 22.05 54.01 21.9 54.12 21.45 54.15 20.99 54.61 20.99 55.11 20.87 55.29 21.28 55.52 21.71"/>
    </g>
  </g>
</svg>